<svg width="24" height="24" viewBox="0 0 24 24" fill="none" xmlns="http://www.w3.org/2000/svg">
<g id="material-symbols:speaker">
<path id="Vector" d="M17 22H7C6.45 22 5.97933 21.8043 5.588 21.413C5.19667 21.0217 5.00067 20.5507 5 20V4C5 3.45 5.196 2.97933 5.588 2.588C5.98 2.19667 6.45067 2.00067 7 2H17C17.55 2 18.021 2.196 18.413 2.588C18.805 2.98 19.0007 3.45067 19 4V20C19 20.55 18.8043 21.021 18.413 21.413C18.0217 21.805 17.5507 22.0007 17 22ZM12 9C12.55 9 13.021 8.80433 13.413 8.413C13.805 8.02167 14.0007 7.55067 14 7C13.9993 6.44933 13.8037 5.97867 13.413 5.588C13.0223 5.19733 12.5513 5.00133 12 5C11.4487 4.99867 10.978 5.19467 10.588 5.588C10.198 5.98133 10.002 6.452 10 7C9.998 7.548 10.194 8.019 10.588 8.413C10.982 8.807 11.4527 9.00267 12 9ZM12 19C13.1 19 14.0417 18.6083 14.825 17.825C15.6083 17.0417 16 16.1 16 15C16 13.9 15.6083 12.9583 14.825 12.175C14.0417 11.3917 13.1 11 12 11C10.9 11 9.95833 11.3917 9.175 12.175C8.39167 12.9583 8 13.9 8 15C8 16.1 8.39167 17.0417 9.175 17.825C9.95833 18.6083 10.9 19 12 19ZM12 17C11.45 17 10.9793 16.8043 10.588 16.413C10.1967 16.0217 10.0007 15.5507 10 15C9.99933 14.4493 10.1953 13.9787 10.588 13.588C10.9807 13.1973 11.4513 13.0013 12 13C12.5487 12.9987 13.0197 13.1947 13.413 13.588C13.8063 13.9813 14.002 14.452 14 15C13.998 15.548 13.8023 16.019 13.413 16.413C13.0237 16.807 12.5527 17.0027 12 17Z" fill="#2D3047" fill-opacity="0.85" style="fill:#2D3047;fill:color(display-p3 0.1765 0.1882 0.2784);fill-opacity:0.85;"/>
</g>
</svg>
