<svg width="24" height="24" viewBox="0 0 24 24" fill="none" xmlns="http://www.w3.org/2000/svg">
<g id="mage:edit-pen">
<path id="Vector" d="M12.777 4.88903L17.187 9.28703M3.79004 21.25H20.21M4.14404 16.735L4.63704 13.31C4.66356 13.0863 4.76716 12.8787 4.93004 12.723L14.595 3.05903C14.7193 2.93235 14.8741 2.83992 15.0446 2.79068C15.2151 2.74145 15.3954 2.73709 15.568 2.77803C16.4597 3.01475 17.2705 3.48892 17.914 4.15003C18.5795 4.7921 19.0579 5.60302 19.298 6.49603C19.3351 6.66889 19.3287 6.84823 19.2795 7.01802C19.2303 7.18781 19.1398 7.34277 19.016 7.46903L9.35204 17.133C9.18542 17.2869 8.97766 17.3891 8.75404 17.427L5.31704 17.919C5.15694 17.9407 4.99401 17.9248 4.84106 17.8728C4.68812 17.8208 4.54934 17.734 4.43564 17.6192C4.32194 17.5044 4.23642 17.3648 4.18582 17.2114C4.13523 17.058 4.12092 16.8949 4.14404 16.735Z" stroke="#2D3047" stroke-opacity="0.85" style="stroke:#2D3047;stroke:color(display-p3 0.1765 0.1882 0.2784);stroke-opacity:0.85;" stroke-width="1.5" stroke-linecap="round" stroke-linejoin="round"/>
</g>
</svg>
