<svg width="24" height="24" viewBox="0 0 24 24" fill="none" xmlns="http://www.w3.org/2000/svg">
<g id="mingcute:brush-2-line">
<g id="Group">
<path id="Vector" fill-rule="evenodd" clip-rule="evenodd" d="M2.80786 2.80811C3.69286 1.92211 4.81786 1.47811 5.99186 1.60511C7.15286 1.73011 8.21686 2.39811 9.04786 3.45111C9.93586 4.57811 10.7479 6.18311 11.3839 7.62511C11.6949 8.32911 12.5439 8.49911 13.0599 8.10011L13.1529 8.01911L13.7679 7.40411C14.2148 6.95702 14.8146 6.69586 15.4464 6.67323C16.0781 6.65059 16.695 6.86815 17.1729 7.28211L17.3029 7.40411L21.5459 11.6461C21.993 12.0931 22.2541 12.6928 22.2767 13.3246C22.2994 13.9564 22.0818 14.5733 21.6679 15.0511L21.5459 15.1811L15.1819 21.5461C14.7349 21.9932 14.1351 22.2543 13.5034 22.277C12.8716 22.2996 12.2547 22.0821 11.7769 21.6681L11.6469 21.5461L7.40386 17.3031C6.9562 16.8554 6.69506 16.2546 6.67316 15.6219C6.65126 14.9891 6.87023 14.3717 7.28586 13.8941L7.40786 13.7641L8.01786 13.1531C8.51786 12.6531 8.37286 11.7141 7.62486 11.3841C6.18286 10.7481 4.57786 9.93611 3.45086 9.04811C2.39786 8.21711 1.73086 7.15311 1.60486 5.99211C1.47786 4.81811 1.92186 3.69211 2.80786 2.80811ZM19.0699 12.0001L11.9999 19.0711L13.0599 20.1311C13.1063 20.1777 13.1615 20.2146 13.2222 20.2398C13.283 20.265 13.3481 20.278 13.4139 20.278C13.4796 20.278 13.5448 20.265 13.6055 20.2398C13.6662 20.2146 13.7214 20.1777 13.7679 20.1311L20.1319 13.7681C20.2256 13.6743 20.2783 13.5472 20.2783 13.4146C20.2783 13.282 20.2256 13.1549 20.1319 13.0611L19.0699 12.0001ZM5.77686 3.59311C5.27886 3.53911 4.73386 3.71011 4.22186 4.22211C3.70986 4.73411 3.53886 5.27911 3.59286 5.77711C3.64886 6.28911 3.95786 6.90011 4.68886 7.47711C5.60886 8.20211 7.02086 8.93211 8.43286 9.55511C10.3079 10.3821 10.9659 12.8451 9.56486 14.4271L9.43186 14.5681L8.81786 15.1821C8.73503 15.2648 8.68386 15.374 8.67326 15.4906C8.66266 15.6072 8.69331 15.7238 8.75986 15.8201L8.81786 15.8901L10.5859 17.6571L17.6559 10.5861L15.8889 8.81811C15.8061 8.73528 15.697 8.68411 15.5804 8.67351C15.4638 8.66291 15.3472 8.69356 15.2509 8.76011L15.1819 8.81811L14.5669 9.43311C12.9959 11.0041 10.4069 10.3651 9.55486 8.43311C8.93186 7.02111 8.20186 5.60911 7.47686 4.68911C6.89986 3.95811 6.28886 3.64911 5.77686 3.59311Z" fill="#2D3047" fill-opacity="0.85" style="fill:#2D3047;fill:color(display-p3 0.1765 0.1882 0.2784);fill-opacity:0.85;"/>
</g>
</g>
</svg>
