<svg width="24" height="24" viewBox="0 0 24 24" fill="none" xmlns="http://www.w3.org/2000/svg">
<g id="mingcute:mic-fill">
<g id="Group">
<path id="Vector" d="M19.0699 12.01C19.2001 12.0284 19.3254 12.0723 19.4386 12.1392C19.5518 12.206 19.6508 12.2946 19.7297 12.3997C19.8087 12.5049 19.8661 12.6245 19.8987 12.7519C19.9314 12.8793 19.9386 13.0118 19.9199 13.142C19.6693 14.876 18.8566 16.4799 17.6066 17.7075C16.3565 18.9352 14.7382 19.7187 12.9999 19.938V21C12.9999 21.2652 12.8946 21.5196 12.707 21.7071C12.5195 21.8946 12.2652 22 11.9999 22C11.7347 22 11.4804 21.8946 11.2928 21.7071C11.1053 21.5196 10.9999 21.2652 10.9999 21V19.938C9.26191 19.7184 7.64391 18.9347 6.3941 17.7071C5.1443 16.4795 4.3317 14.8758 4.08094 13.142C4.04328 12.8794 4.11146 12.6127 4.27049 12.4004C4.42952 12.1881 4.66637 12.0477 4.92894 12.01C5.1915 11.9723 5.45827 12.0405 5.67056 12.1996C5.88285 12.3586 6.02328 12.5954 6.06094 12.858C6.26775 14.2856 6.98188 15.5909 8.07255 16.535C9.16322 17.479 10.5574 17.9986 11.9999 17.9986C13.4424 17.9986 14.8367 17.479 15.9273 16.535C17.018 15.5909 17.7321 14.2856 17.9389 12.858C17.9576 12.728 18.0016 12.6029 18.0686 12.4899C18.1356 12.3769 18.2242 12.2783 18.3293 12.1995C18.4344 12.1208 18.554 12.0635 18.6813 12.031C18.8085 11.9985 18.9399 11.9913 19.0699 12.01ZM11.9999 2C13.326 2 14.5978 2.52678 15.5355 3.46447C16.4732 4.40215 16.9999 5.67392 16.9999 7V12C16.9999 13.3261 16.4732 14.5979 15.5355 15.5355C14.5978 16.4732 13.326 17 11.9999 17C10.6739 17 9.40209 16.4732 8.4644 15.5355C7.52672 14.5979 6.99994 13.3261 6.99994 12V7C6.99994 5.67392 7.52672 4.40215 8.4644 3.46447C9.40209 2.52678 10.6739 2 11.9999 2Z" fill="white" style="fill:white;fill-opacity:1;"/>
</g>
</g>
</svg>
