<svg width="24" height="24" viewBox="0 0 24 24" fill="none" xmlns="http://www.w3.org/2000/svg">
<g id="mingcute:copy-2-line">
<g id="Group">
<path id="Vector" fill-rule="evenodd" clip-rule="evenodd" d="M12.5932 23.2579L12.5822 23.2599L12.5112 23.2949L12.4912 23.2989L12.4772 23.2949L12.4062 23.2599C12.3955 23.2566 12.3875 23.2583 12.3822 23.2649L12.3782 23.2749L12.3612 23.7029L12.3662 23.7229L12.3762 23.7359L12.4802 23.8099L12.4952 23.8139L12.5072 23.8099L12.6112 23.7359L12.6232 23.7199L12.6272 23.7029L12.6102 23.2759C12.6075 23.2653 12.6018 23.2593 12.5932 23.2579ZM12.8582 23.1449L12.8452 23.1469L12.6602 23.2399L12.6502 23.2499L12.6472 23.2609L12.6652 23.6909L12.6702 23.7029L12.6782 23.7099L12.8792 23.8029C12.8918 23.8063 12.9015 23.8036 12.9082 23.7949L12.9122 23.7809L12.8782 23.1669C12.8748 23.1549 12.8682 23.1476 12.8582 23.1449ZM12.1432 23.1469C12.1388 23.1443 12.1335 23.1434 12.1285 23.1445C12.1234 23.1456 12.119 23.1487 12.1162 23.1529L12.1102 23.1669L12.0762 23.7809C12.0768 23.7929 12.0825 23.8009 12.0932 23.8049L12.1082 23.8029L12.3092 23.7099L12.3192 23.7019L12.3232 23.6909L12.3402 23.2609L12.3372 23.2489L12.3272 23.2389L12.1432 23.1469Z" fill="#E7E7E7" style="fill:#E7E7E7;fill:color(display-p3 0.9073 0.9073 0.9073);fill-opacity:1;"/>
<path id="Vector_2" fill-rule="evenodd" clip-rule="evenodd" d="M9 2C8.46957 2 7.96086 2.21071 7.58579 2.58579C7.21071 2.96086 7 3.46957 7 4V6H9V4H20V15H18V17H20C20.5304 17 21.0391 16.7893 21.4142 16.4142C21.7893 16.0391 22 15.5304 22 15V4C22 3.46957 21.7893 2.96086 21.4142 2.58579C21.0391 2.21071 20.5304 2 20 2H9ZM4 7C3.46957 7 2.96086 7.21071 2.58579 7.58579C2.21071 7.96086 2 8.46957 2 9V20C2 20.5304 2.21071 21.0391 2.58579 21.4142C2.96086 21.7893 3.46957 22 4 22H15C15.5304 22 16.0391 21.7893 16.4142 21.4142C16.7893 21.0391 17 20.5304 17 20V9C17 8.46957 16.7893 7.96086 16.4142 7.58579C16.0391 7.21071 15.5304 7 15 7H4ZM4 9H15V20H4V9Z" fill="#E7E7E7" style="fill:#E7E7E7;fill:color(display-p3 0.9073 0.9073 0.9073);fill-opacity:1;"/>
</g>
</g>
</svg>
